<?xml version="1.0" encoding="UTF-8" standalone="no"?>
<!-- Created with Inkscape (http://www.inkscape.org/) -->

<svg
   xmlns:dc="http://purl.org/dc/elements/1.1/"
   xmlns:cc="http://creativecommons.org/ns#"
   xmlns:rdf="http://www.w3.org/1999/02/22-rdf-syntax-ns#"
   xmlns:svg="http://www.w3.org/2000/svg"
   xmlns="http://www.w3.org/2000/svg"
   xmlns:sodipodi="http://sodipodi.sourceforge.net/DTD/sodipodi-0.dtd"
   xmlns:inkscape="http://www.inkscape.org/namespaces/inkscape"
   version="1.1"
   id="svg2"
   xml:space="preserve"
   width="188.97333"
   height="36.466667"
   viewBox="0 0 188.97333 36.466667"
   sodipodi:docname="TUKL_LOGO_FELD_LINKS_4C.svg"
   inkscape:version="0.92.2 (5c3e80d, 2017-08-06)"><metadata
     id="metadata8"><rdf:RDF><cc:Work
         rdf:about=""><dc:format>image/svg+xml</dc:format><dc:type
           rdf:resource="http://purl.org/dc/dcmitype/StillImage" /><dc:title></dc:title></cc:Work></rdf:RDF></metadata><defs
     id="defs6" /><sodipodi:namedview
     pagecolor="#ffffff"
     bordercolor="#666666"
     borderopacity="1"
     objecttolerance="10"
     gridtolerance="10"
     guidetolerance="10"
     inkscape:pageopacity="0"
     inkscape:pageshadow="2"
     inkscape:window-width="640"
     inkscape:window-height="480"
     id="namedview4"
     showgrid="false"
     inkscape:zoom="1.4552318"
     inkscape:cx="94.486664"
     inkscape:cy="18.233334"
     inkscape:window-x="0"
     inkscape:window-y="0"
     inkscape:window-maximized="0"
     inkscape:current-layer="g10" /><g
     id="g10"
     inkscape:groupmode="layer"
     inkscape:label="ink_ext_XXXXXX"
     transform="matrix(1.3333333,0,0,-1.3333333,0,36.466667)"><g
       id="g12"
       transform="scale(0.1)"><path
         d="M 337.113,1.85547 V 40.7148 h 5.114 L 369.098,1.85547 h 22.168 l -30.289,42.80083 -7.68,5.1679 7.129,4.9727 26.808,38.9648 h -20.511 l -25.368,-38.8984 -4.242,-1.7969 v 40.6953 h -17.05 V 1.85547 Z m 82.242,0 6.211,18.78123 h 30.231 l 6.09,-18.78123 h 17.051 L 445.863,94.3945 H 433.004 L 401.387,1.85547 Z m 18.239,55.11723 2.761,14.5507 h 0.641 l 2.817,-14.4257 6.792,-20.4375 h -19.73 z m 76.551,36.789 H 497.094 V 1.85547 h 17.051 z M 542.793,1.86328 C 547.656,0.625 553.266,0 559.625,0 c 4.816,0 9.262,0.574219 13.309,1.73828 4.054,1.17188 7.5,2.92969 10.351,5.30078 2.836,2.36328 5.059,5.34374 6.641,8.90624 1.578,3.5742 2.371,7.8438 2.371,12.793 0,4.7695 -0.918,8.7617 -2.742,11.9844 -1.821,3.2109 -4.121,5.9179 -6.887,8.0937 -2.773,2.168 -5.953,4.0938 -9.555,5.7344 -3.586,1.6484 -6.957,3.1836 -10.086,4.6211 -3.132,1.4258 -5.863,3.0156 -8.191,4.7422 -2.332,1.7382 -3.504,3.8984 -3.504,6.4843 0,2.793 1.125,5.0118 3.352,6.6602 2.218,1.6523 5.445,2.4727 9.632,2.4727 4.379,0 8.438,-0.4883 12.2,-1.4844 3.75,-0.9961 6.558,-2.1016 8.429,-3.3203 l 5.336,15.2929 c -2.937,1.7969 -6.707,3.1719 -11.297,4.1211 -4.597,0.9375 -9.488,1.4063 -14.668,1.4063 -4.472,0 -8.531,-0.5196 -12.183,-1.5821 -3.649,-1.0546 -6.805,-2.6875 -9.477,-4.8945 -2.679,-2.207 -4.742,-4.9687 -6.191,-8.3008 -1.449,-3.3281 -2.168,-7.2461 -2.168,-11.7382 0,-5.1055 1.019,-9.3047 3.066,-12.5977 2.051,-3.2891 4.645,-6.0234 7.766,-8.2109 3.117,-2.2071 6.476,-4.0899 10.074,-5.6954 3.602,-1.5976 6.961,-3.0859 10.09,-4.4804 3.129,-1.3867 5.57,-2.9297 7.324,-4.6289 1.746,-1.6992 2.625,-3.9375 2.625,-6.6992 0,-3.6133 -1.429,-6.2891 -4.273,-8.0586 -2.844,-1.7657 -6.953,-2.6446 -12.301,-2.6446 -2.191,0 -4.313,0.1758 -6.371,0.5157 -2.07,0.332 -4.031,0.7656 -5.879,1.3007 -1.863,0.5157 -3.531,1.0821 -5.012,1.6993 -1.488,0.6054 -2.711,1.1718 -3.664,1.6796 L 531.988,5.64453 C 534.336,4.375 537.934,3.11328 542.793,1.86328 M 669.055,1.85547 V 17.8828 h -38.059 v 22.4297 h 34.149 v 16.0156 h -34.149 v 21.4063 h 37.418 V 93.7617 H 613.945 V 1.85547 Z m 38.316,0 V 39.5391 l 9.762,-2.0899 20.68,-35.59373 h 20.703 l -20.821,34.69923 -6.609,4.3906 c 5.293,1.8477 9.519,5.1289 12.684,9.875 3.164,4.7344 4.746,10.8789 4.746,18.3985 0,5.039 -0.938,9.2382 -2.793,12.6171 -1.856,3.3672 -4.344,6.0235 -7.461,7.9493 -3.125,1.9257 -6.66,3.2812 -10.606,4.0703 -3.945,0.7929 -7.937,1.1836 -11.992,1.1836 -1.777,0 -3.723,-0.0391 -5.82,-0.1289 -2.11,-0.086 -4.278,-0.2149 -6.508,-0.3789 -2.231,-0.1758 -4.469,-0.4219 -6.719,-0.7422 -2.254,-0.3203 -4.351,-0.6524 -6.289,-0.9844 V 1.85547 Z m 0,76.52343 c 0.992,0.2617 2.387,0.4297 4.184,0.5078 1.8,0.086 3.621,0.1367 5.461,0.1367 4.742,0 8.355,-1.1132 10.789,-3.332 2.449,-2.2226 3.672,-5.3008 3.672,-9.2383 0,-5.2539 -1.497,-9.0234 -4.465,-11.3086 -2.989,-2.2851 -6.973,-3.4257 -11.989,-3.4257 h -7.652 z M 782.109,1.86328 C 786.965,0.625 792.578,0 798.938,0 c 4.812,0 9.253,0.574219 13.308,1.73828 4.043,1.17188 7.5,2.92969 10.352,5.30078 2.851,2.36328 5.058,5.34374 6.64,8.90624 1.582,3.5742 2.364,7.8438 2.364,12.793 0,4.7695 -0.911,8.7617 -2.735,11.9844 -1.816,3.2109 -4.109,5.9179 -6.894,8.0937 -2.774,2.168 -5.95,4.0938 -9.551,5.7344 -3.594,1.6484 -6.953,3.1836 -10.086,4.6211 -3.137,1.4258 -5.859,3.0156 -8.195,4.7422 -2.325,1.7382 -3.496,3.8984 -3.496,6.4843 0,2.793 1.113,5.0118 3.347,6.6602 2.219,1.6523 5.442,2.4727 9.641,2.4727 4.375,0 8.437,-0.4883 12.187,-1.4844 3.75,-0.9961 6.563,-2.1016 8.438,-3.3203 l 5.332,15.2929 c -2.93,1.7969 -6.699,3.1719 -11.289,4.1211 -4.61,0.9375 -9.492,1.4063 -14.668,1.4063 -4.473,0 -8.535,-0.5196 -12.188,-1.5821 -3.652,-1.0546 -6.816,-2.6875 -9.48,-4.8945 -2.668,-2.207 -4.738,-4.9687 -6.184,-8.3008 -1.457,-3.3281 -2.176,-7.2461 -2.176,-11.7382 0,-5.1055 1.024,-9.3047 3.075,-12.5977 2.05,-3.2891 4.629,-6.0234 7.754,-8.2109 3.125,-2.2071 6.484,-4.0899 10.078,-5.6954 3.601,-1.5976 6.965,-3.0859 10.097,-4.4804 3.125,-1.3867 5.567,-2.9297 7.317,-4.6289 1.746,-1.6992 2.625,-3.9375 2.625,-6.6992 0,-3.6133 -1.426,-6.2891 -4.27,-8.0586 -2.84,-1.7657 -6.941,-2.6446 -12.312,-2.6446 -2.188,0 -4.297,0.1758 -6.367,0.5157 -2.071,0.332 -4.024,0.7656 -5.879,1.3007 -1.856,0.5157 -3.528,1.0821 -5.008,1.6993 -1.496,0.6054 -2.707,1.1718 -3.645,1.6796 L 771.289,5.64453 c 2.356,-1.26953 5.957,-2.53125 10.82,-3.78125 M 908.762,1.85547 V 17.8828 H 867.676 V 93.7617 H 850.625 V 1.85547 Z m 28.562,0 6.211,18.78123 h 30.235 l 6.085,-18.78123 h 17.04 L 963.84,94.3945 H 950.969 L 919.355,1.85547 Z m 18.242,55.11723 2.747,14.5507 h 0.64 l 2.824,-14.4257 6.797,-20.4375 H 948.84 Z M 1044.26,0.265625 c 4.78,0 9.21,0.652344 13.25,1.968755 4.03,1.32812 7.45,3.39062 10.25,6.19531 2.81,2.80081 4.98,6.33591 6.56,10.64061 1.56,4.2891 2.33,9.4063 2.33,15.3555 v 59.3359 h -17.04 V 35.7031 c 0,-6.8086 -1.23,-11.7383 -3.69,-14.8125 -2.47,-3.0703 -6.47,-4.6133 -11.98,-4.6133 -2.79,0 -5.23,0.3321 -7.33,0.9883 -2.1,0.6641 -3.85,1.7774 -5.25,3.3008 -1.43,1.543 -2.46,3.5547 -3.13,6.0352 -0.65,2.4687 -0.98,5.5078 -0.98,9.1015 V 93.7617 H 1010.2 V 32.168 c 0,-21.2696 11.34,-31.902375 34.06,-31.902375 M 1118.55,77.7344 V 1.85547 h 17.06 V 77.7344 h 27.75 v 16.0273 h -72.62 V 77.7344 Z M 1235.63,1.85547 V 17.8828 h -38.05 v 22.4297 h 34.15 v 16.0156 h -34.15 v 21.4063 h 37.41 v 16.0273 h -54.46 V 1.85547 Z m 35.7,0 V 39.5391 l 9.75,-2.0899 20.7,-35.59373 h 20.69 l -20.83,34.69923 -6.59,4.3906 c 5.27,1.8477 9.5,5.1289 12.67,9.875 3.17,4.7344 4.75,10.8789 4.75,18.3985 0,5.039 -0.93,9.2382 -2.79,12.6171 -1.87,3.3672 -4.36,6.0235 -7.47,7.9493 -3.12,1.9257 -6.65,3.2812 -10.6,4.0703 -3.94,0.7929 -7.95,1.1836 -11.99,1.1836 -1.78,0 -3.71,-0.0391 -5.82,-0.1289 -2.11,-0.086 -4.28,-0.2149 -6.51,-0.3789 -2.22,-0.1758 -4.47,-0.4219 -6.72,-0.7422 -2.26,-0.3203 -4.35,-0.6524 -6.28,-0.9844 V 1.85547 Z m 0,76.52343 c 0.98,0.2617 2.37,0.4297 4.18,0.5078 1.79,0.086 3.61,0.1367 5.46,0.1367 4.75,0 8.36,-1.1132 10.8,-3.332 2.44,-2.2226 3.66,-5.3008 3.66,-9.2383 0,-5.2539 -1.49,-9.0234 -4.47,-11.3086 -2.97,-2.2851 -6.98,-3.4257 -11.99,-3.4257 h -7.64 z M 1356.85,1.85547 V 49.7969 l -2.11,14.4219 h 0.7 l 7.18,-14.4219 34.54,-48.57424 h 13.07 V 93.7617 h -17.05 V 45.4375 l 2.11,-14.043 h -0.63 l -6.96,14.0664 -34.72,48.9336 h -13.19 V 1.85547 h 17.06"
         style="fill:#085689;fill-opacity:1;fill-rule:nonzero;stroke:none"
         id="path14"
         inkscape:connector-curvature="0" /><path
         d="m 332.695,183.523 v -54.937 h 12.344 v 54.937 h 20.098 v 11.602 h -52.578 v -11.602 z m 79.551,-54.937 v 11.598 h -27.558 v 16.242 h 24.73 v 11.601 h -24.73 v 15.496 h 27.097 v 11.602 H 372.34 v -66.539 z m 10.27,17.215 c 1.449,-4.406 3.402,-7.981 5.851,-10.735 2.457,-2.742 5.473,-4.734 9.039,-5.972 3.563,-1.235 7.34,-1.86 11.328,-1.86 3.282,0 6.493,0.317 9.633,0.95 3.141,0.625 5.731,1.668 7.77,3.105 l -2.692,10.625 c -1.449,-0.906 -3.156,-1.641 -5.129,-2.219 -1.961,-0.562 -4.371,-0.855 -7.207,-0.855 -3.035,0 -5.714,0.562 -8.035,1.668 -2.316,1.125 -4.246,2.683 -5.801,4.676 -1.546,2.004 -2.699,4.414 -3.457,7.238 -0.757,2.82 -1.14,5.945 -1.14,9.383 0,7.883 1.609,13.683 4.808,17.422 3.204,3.73 7.434,5.605 12.692,5.605 2.851,0 5.273,-0.164 7.262,-0.477 2,-0.304 3.718,-0.82 5.179,-1.523 l 2.551,11.043 c -1.699,0.715 -3.867,1.309 -6.5,1.816 -2.633,0.489 -5.84,0.735 -9.648,0.735 -3.559,0 -7.11,-0.586 -10.653,-1.77 -3.539,-1.172 -6.621,-3.105 -9.222,-5.801 -2.606,-2.695 -4.727,-6.25 -6.356,-10.644 -1.633,-4.395 -2.453,-9.863 -2.453,-16.406 0,-6.27 0.734,-11.61 2.18,-16.004 m 65.82,-17.215 v 27.84 h 24.414 v -27.84 h 12.34 v 66.539 h -12.34 v -27.098 h -24.414 v 27.098 h -12.352 v -66.539 z m 62.344,0 v 34.715 l -1.543,10.437 h 0.511 l 5.2,-10.437 25.019,-35.188 h 9.457 v 67.012 h -12.336 v -34.988 l 1.52,-10.157 h -0.461 l -5.039,10.165 -25.141,35.449 h -9.543 v -67.008 z m 64.226,66.539 h -12.34 v -66.539 h 12.34 z m 18.379,-66.531 c 3.524,-0.91 7.582,-1.36 12.195,-1.36 3.485,0 6.7,0.422 9.625,1.262 2.942,0.84 5.442,2.117 7.5,3.84 2.063,1.719 3.661,3.863 4.801,6.453 1.149,2.578 1.719,5.676 1.719,9.258 0,3.457 -0.656,6.348 -1.977,8.68 -1.324,2.336 -2.984,4.281 -4.992,5.863 -2,1.57 -4.308,2.957 -6.906,4.148 -2.613,1.192 -5.055,2.317 -7.316,3.34 -2.266,1.043 -4.246,2.188 -5.926,3.445 -1.692,1.25 -2.531,2.813 -2.531,4.688 0,2.023 0.8,3.625 2.418,4.824 1.613,1.192 3.929,1.797 6.984,1.797 3.156,0 6.105,-0.359 8.816,-1.082 2.719,-0.723 4.762,-1.523 6.114,-2.402 l 3.867,11.074 c -2.129,1.308 -4.86,2.293 -8.188,2.976 -3.332,0.696 -6.871,1.028 -10.609,1.028 -3.254,0 -6.191,-0.371 -8.828,-1.145 -2.645,-0.769 -4.934,-1.953 -6.863,-3.543 -1.942,-1.601 -3.43,-3.593 -4.481,-6.015 -1.051,-2.414 -1.578,-5.246 -1.578,-8.496 0,-3.704 0.738,-6.739 2.226,-9.122 1.481,-2.382 3.36,-4.367 5.61,-5.957 2.262,-1.593 4.691,-2.96 7.301,-4.121 2.613,-1.14 5.054,-2.234 7.308,-3.242 2.274,-1.008 4.043,-2.129 5.305,-3.359 1.269,-1.231 1.906,-2.832 1.906,-4.844 0,-2.609 -1.039,-4.551 -3.097,-5.828 -2.063,-1.274 -5.032,-1.914 -8.915,-1.914 -1.574,0 -3.117,0.125 -4.617,0.371 -1.488,0.242 -2.91,0.547 -4.25,0.926 -1.351,0.39 -2.562,0.801 -3.633,1.242 -1.078,0.437 -1.957,0.848 -2.644,1.219 l -4.168,-11.27 c 1.695,-0.918 4.305,-1.824 7.824,-2.734 m 46.383,17.207 c 1.449,-4.406 3.398,-7.981 5.859,-10.735 2.453,-2.742 5.457,-4.734 9.028,-5.972 3.57,-1.235 7.34,-1.86 11.343,-1.86 3.266,0 6.489,0.317 9.629,0.95 3.141,0.625 5.723,1.668 7.774,3.105 l -2.696,10.625 c -1.46,-0.906 -3.167,-1.641 -5.125,-2.219 -1.972,-0.562 -4.371,-0.855 -7.222,-0.855 -3.031,0 -5.707,0.562 -8.031,1.668 -2.321,1.125 -4.25,2.683 -5.797,4.676 -1.543,2.004 -2.7,4.414 -3.453,7.238 -0.762,2.82 -1.137,5.945 -1.137,9.383 0,7.883 1.598,13.683 4.801,17.422 3.195,3.73 7.425,5.605 12.687,5.605 2.848,0 5.27,-0.164 7.266,-0.477 1.992,-0.304 3.722,-0.82 5.172,-1.523 l 2.558,11.043 c -1.711,0.715 -3.867,1.309 -6.5,1.816 -2.625,0.489 -5.847,0.735 -9.656,0.735 -3.551,0 -7.102,-0.586 -10.648,-1.77 -3.543,-1.172 -6.614,-3.105 -9.219,-5.801 -2.613,-2.695 -4.735,-6.25 -6.363,-10.644 -1.633,-4.395 -2.454,-9.863 -2.454,-16.406 0,-6.27 0.735,-11.61 2.184,-16.004 m 65.82,-17.215 v 27.84 h 24.414 v -27.84 h 12.344 v 66.539 h -12.344 v -27.098 h -24.414 v 27.098 h -12.343 v -66.539 z m 89.903,0 v 11.598 h -27.559 v 16.242 h 24.727 v 11.601 h -24.727 v 15.496 h 27.09 v 11.602 h -39.434 v -66.539 z m 59.074,-1.164 c 3.473,0 6.668,0.476 9.598,1.433 2.917,0.969 5.402,2.454 7.429,4.485 2.031,2.031 3.613,4.59 4.746,7.695 1.125,3.113 1.692,6.824 1.692,11.121 v 42.969 h -12.344 v -42.039 c 0,-4.91 -0.898,-8.496 -2.676,-10.715 -1.789,-2.234 -4.68,-3.348 -8.672,-3.348 -2.011,0 -3.777,0.235 -5.3,0.711 -1.516,0.489 -2.793,1.282 -3.809,2.395 -1.027,1.125 -1.777,2.566 -2.258,4.375 -0.488,1.789 -0.723,3.984 -0.723,6.582 v 42.039 h -12.343 v -44.598 c 0,-15.398 8.222,-23.105 24.66,-23.105 m 48.023,1.164 v 34.715 l -1.531,10.437 h 0.508 l 5.207,-10.437 25.008,-35.188 h 9.465 v 67.012 h -12.344 v -34.988 l 1.519,-10.157 h -0.457 l -5.039,10.165 -25.136,35.449 h -9.543 v -67.008 z m 64.242,66.539 h -12.343 v -66.539 h 12.343 z m 31.01,-67.012 h 9.29 l 24.53,67.012 h -12.33 l -12.73,-38.973 -1.89,-11.425 h -0.46 l -1.72,11.336 -13.36,39.062 h -15.05 z m 80.39,0.473 v 11.598 h -27.56 v 16.242 h 24.72 v 11.601 h -24.72 v 15.496 h 27.1 v 11.602 h -39.46 v -66.539 z m 22.51,0 v 27.281 l 7.07,-1.512 14.98,-25.769 h 14.99 l -15.07,25.113 -4.8,3.196 c 3.84,1.328 6.9,3.703 9.2,7.148 2.29,3.43 3.43,7.871 3.43,13.32 0,3.641 -0.67,6.7 -2.02,9.141 -1.35,2.43 -3.16,4.355 -5.41,5.742 -2.27,1.406 -4.82,2.383 -7.67,2.949 -2.86,0.575 -5.76,0.868 -8.69,0.868 -1.28,0 -2.69,-0.04 -4.21,-0.098 -1.53,-0.067 -3.1,-0.156 -4.72,-0.274 -1.62,-0.136 -3.24,-0.3 -4.86,-0.535 -1.63,-0.234 -3.15,-0.48 -4.55,-0.715 v -65.855 z m 0,55.406 c 0.72,0.188 1.72,0.305 3.04,0.371 1.3,0.071 2.62,0.098 3.95,0.098 3.43,0 6.05,-0.809 7.82,-2.41 1.77,-1.613 2.65,-3.84 2.65,-6.692 0,-3.796 -1.08,-6.531 -3.24,-8.191 -2.15,-1.652 -5.05,-2.48 -8.67,-2.48 h -5.55 z m 49.85,-55.398 c 3.51,-0.91 7.58,-1.36 12.19,-1.36 3.49,0 6.7,0.422 9.63,1.262 2.93,0.84 5.43,2.117 7.49,3.84 2.07,1.719 3.67,3.863 4.81,6.453 1.15,2.578 1.72,5.676 1.72,9.258 0,3.457 -0.67,6.348 -1.98,8.68 -1.32,2.336 -2.98,4.281 -4.99,5.863 -2.01,1.57 -4.31,2.957 -6.91,4.148 -2.62,1.192 -5.05,2.317 -7.31,3.34 -2.27,1.043 -4.25,2.188 -5.93,3.445 -1.69,1.25 -2.53,2.813 -2.53,4.688 0,2.023 0.8,3.625 2.42,4.824 1.6,1.192 3.94,1.797 6.97,1.797 3.17,0 6.12,-0.359 8.82,-1.082 2.73,-0.723 4.77,-1.523 6.12,-2.402 l 3.86,11.074 c -2.13,1.308 -4.85,2.293 -8.18,2.976 -3.33,0.696 -6.88,1.028 -10.62,1.028 -3.25,0 -6.19,-0.371 -8.82,-1.145 -2.64,-0.769 -4.94,-1.953 -6.86,-3.543 -1.94,-1.601 -3.44,-3.593 -4.48,-6.015 -1.06,-2.414 -1.58,-5.246 -1.58,-8.496 0,-3.704 0.74,-6.739 2.22,-9.122 1.49,-2.382 3.37,-4.367 5.62,-5.957 2.25,-1.593 4.7,-2.96 7.29,-4.121 2.62,-1.14 5.06,-2.234 7.32,-3.242 2.26,-1.008 4.04,-2.129 5.3,-3.359 1.27,-1.231 1.9,-2.832 1.9,-4.844 0,-2.609 -1.03,-4.551 -3.09,-5.828 -2.06,-1.274 -5.03,-1.914 -8.92,-1.914 -1.57,0 -3.11,0.125 -4.61,0.371 -1.49,0.242 -2.92,0.547 -4.25,0.926 -1.35,0.39 -2.56,0.801 -3.64,1.242 -1.07,0.437 -1.95,0.848 -2.63,1.219 l -4.18,-11.27 c 1.7,-0.918 4.3,-1.824 7.83,-2.734 m 59.98,66.531 h -12.34 v -66.539 h 12.34 z m 28.65,-11.602 v -54.937 h 12.34 v 54.937 h 20.09 v 11.602 h -52.58 v -11.602 z m 43.61,-54.937 4.51,13.594 h 21.89 l 4.41,-13.594 h 12.34 l -23.95,67.008 h -9.31 l -22.89,-67.008 z m 13.22,39.898 1.99,10.547 h 0.47 l 2.04,-10.437 4.92,-14.817 h -14.3 z m -12.73,32.09 c 1.16,-1.023 3,-1.543 5.53,-1.543 2.45,0 4.24,0.52 5.39,1.543 1.13,1.047 1.71,2.434 1.71,4.18 0,1.777 -0.57,3.203 -1.69,4.277 -1.13,1.067 -2.93,1.602 -5.41,1.602 -2.53,0 -4.37,-0.547 -5.53,-1.629 -1.13,-1.086 -1.72,-2.5 -1.72,-4.25 0,-1.746 0.59,-3.133 1.72,-4.18 m 20.33,0 c 1.15,-1.023 2.95,-1.543 5.43,-1.543 2.53,0 4.38,0.52 5.5,1.543 1.14,1.047 1.7,2.434 1.7,4.18 0,1.777 -0.56,3.203 -1.7,4.277 -1.12,1.067 -2.97,1.602 -5.5,1.602 -2.48,0 -4.28,-0.547 -5.43,-1.629 -1.15,-1.086 -1.71,-2.5 -1.71,-4.25 0,-1.746 0.56,-3.133 1.71,-4.18 m 41.33,-17.051 v -54.937 h 12.35 v 54.937 h 20.09 v 11.602 h -52.57 v -11.602 h 20.13"
         style="fill:#bf1d23;fill-opacity:1;fill-rule:nonzero;stroke:none"
         id="path16"
         inkscape:connector-curvature="0" /><path
         d="M 135.406,273.535 28.9727,240.117 V 207.176 H 242.973 l 0.031,34.726 -107.598,31.633"
         style="fill:#085689;fill-opacity:1;fill-rule:nonzero;stroke:none"
         id="path18"
         inkscape:connector-curvature="0" /><path
         d="M 56.793,194.637 0,1.57031 H 43.0078 L 99.9297,194.637 H 56.793"
         style="fill:#085689;fill-opacity:1;fill-rule:nonzero;stroke:none"
         id="path20"
         inkscape:connector-curvature="0" /><path
         d="M 222.473,194.727 H 174.809 V 148.84 h 47.664 v 45.887"
         style="fill:#085689;fill-opacity:1;fill-rule:nonzero;stroke:none"
         id="path22"
         inkscape:connector-curvature="0" /><path
         d="M 222.48,121.102 H 174.82 V 75.2148 h 47.66 v 45.8872"
         style="fill:#bf1d23;fill-opacity:1;fill-rule:nonzero;stroke:none"
         id="path24"
         inkscape:connector-curvature="0" /><path
         d="m 174.809,1.58203 h 47.664 V 47.4727 H 174.809 V 1.58203"
         style="fill:#085689;fill-opacity:1;fill-rule:nonzero;stroke:none"
         id="path26"
         inkscape:connector-curvature="0" /></g></g></svg>